<?xml version="1.0" standalone="no"?>
<!DOCTYPE svg PUBLIC "-//W3C//DTD SVG 20010904//EN"
 "http://www.w3.org/TR/2001/REC-SVG-20010904/DTD/svg10.dtd">
<svg version="1.0" xmlns="http://www.w3.org/2000/svg"
 width="512.000000pt" height="512.000000pt" viewBox="0 0 512.000000 512.000000"
 preserveAspectRatio="xMidYMid meet">

<g transform="translate(0.000000,512.000000) scale(0.100000,-0.100000)"
fill="#000000" stroke="none">
<path d="M225 5114 c-133 -33 -215 -130 -215 -254 0 -119 -51 -62 1121 -1236
l1070 -1071 -1079 -1074 c-731 -728 -1085 -1087 -1098 -1114 -27 -57 -26 -166
3 -220 44 -83 131 -138 222 -139 123 -2 49 -68 1236 1111 l1080 1073 1070
-1070 c1172 -1171 1108 -1113 1230 -1114 187 0 312 205 227 370 -13 23 -450
468 -1086 1104 -586 586 -1066 1069 -1066 1075 0 6 478 485 1062 1065 1154
1147 1108 1097 1108 1210 0 64 -32 141 -76 182 -83 78 -221 92 -315 32 -21
-13 -513 -497 -1094 -1075 l-1056 -1053 -1082 1082 c-726 726 -1094 1086
-1117 1096 -40 16 -116 27 -145 20z"/>
</g>
</svg>
